# xmcd
#
# Track frame offsets: 
#        150
#        19447
#        40432
#        58397
#        70405
#        88415
#        100887
#        122387
#        134660
#        146200
#        157047
#        179347
#        191975
#        204562
#        224460
#        238085
#        253277
#        265172
#
# Disc length: 3692 seconds
#
# Revision: 2
# Processed by: cddbd v1.5.1PL0 Copyright (c) Steve Scherf et al.
# Submitted via: ExactAudioCopy v0.95b3
#
DISCID=310e6a12
DTITLE=Various Artist - The Story Of The Blues [CD2]
DYEAR=1993
DGENRE=Blues
TTITLE0=Lightin' Hopkins - Catfish Blues
TTITLE1=John Lee Hooker - T.B. Is Killing Me
TTITLE2=Muddy Waters - My Home Is In The Delta
TTITLE3=Little Walter - My Babe
TTITLE4=Howlin' Wolf - Commit A Crime
TTITLE5=Sonnie Terry and Brownie McGhee - Mean Old Frisco
TTITLE6=Sonny Boy Williamson II - The Story Of Sonny Boy Williamson
TTITLE7=Elmore James - Blues Before Sunrise
TTITLE8=Big Bill Broonzy - Key To The Highway
TTITLE9=Arthur "Big Boy" Crudup - My Mama Don't Allow Me
TTITLE10=Willie Dixon - Spoonful
TTITLE11=Albert King - Born Under A Bad Sign
TTITLE12=Lowell Fulson - Going Back To Chicago
TTITLE13=Roosevelt Sykes - Hey Big Momma
TTITLE14=Eddie "Guitar" Slim Jones - The Things That I Used To Do
TTITLE15=Lonnie Johnson - She's Drunk Again
TTITLE16=J.B. Lenoir - I've Been Down So Long
TTITLE17=Robert Johnson - If I Has Possession Over Judgement Day
EXTD=
EXTT0=
EXTT1=
EXTT2=
EXTT3=
EXTT4=
EXTT5=
EXTT6=
EXTT7=
EXTT8=
EXTT9=
EXTT10=
EXTT11=
EXTT12=
EXTT13=
EXTT14=
EXTT15=
EXTT16=
EXTT17=
PLAYORDER=
